<svg id="Layer_1" data-name="Layer 1" xmlns="http://www.w3.org/2000/svg" viewBox="0 0 300 300"><title>angry</title><path d="M150,5C70.05,5,5,70.05,5,150S70.05,295,150,295,295,230,295,150,230,5,150,5Zm0,277.39C77,282.39,17.61,223,17.61,150S77,17.61,150,17.61,282.39,77,282.39,150,223,282.39,150,282.39Z"/><path d="M118.48,124.78A18.92,18.92,0,1,0,99.57,143.7,18.94,18.94,0,0,0,118.48,124.78Zm-25.22,0a6.31,6.31,0,1,1,6.31,6.31A6.31,6.31,0,0,1,93.26,124.78Z"/><path d="M200.43,105.87a18.92,18.92,0,1,0,18.92,18.91A18.94,18.94,0,0,0,200.43,105.87Zm0,25.22a6.31,6.31,0,1,1,6.31-6.31A6.31,6.31,0,0,1,200.43,131.09Z"/><path d="M150,181.52a82.5,82.5,0,0,0-61.44,27.32,6.31,6.31,0,0,0,9.4,8.41,70.13,70.13,0,0,1,104.08,0,6.31,6.31,0,0,0,9.4-8.41A82.48,82.48,0,0,0,150,181.52Z"/></svg>