<svg id="Layer_1" data-name="Layer 1" xmlns="http://www.w3.org/2000/svg" viewBox="0 0 300 300"><defs><style>.cls-1{fill:#fd79a8;}</style></defs><title>clock</title><path class="cls-1" d="M256.36,43.64A149,149,0,0,0,45.64,254.36,149,149,0,0,0,256.36,43.64ZM151,286.13C75.39,286.13,13.87,224.61,13.87,149S75.39,11.87,151,11.87,288.13,73.39,288.13,149,226.61,286.13,151,286.13Z"/><path class="cls-1" d="M151,23.4A125.6,125.6,0,1,0,276.6,149,125.74,125.74,0,0,0,151,23.4ZM252.31,200.64l-17.11-9.88A5.94,5.94,0,1,0,229.26,201l17.1,9.87a114.91,114.91,0,0,1-33.45,33.45L203,227.26a5.93,5.93,0,0,0-10.28,5.93l9.88,17.12a112.71,112.71,0,0,1-45.7,12.26V242.79a5.94,5.94,0,0,0-11.87,0v19.78a112.75,112.75,0,0,1-45.71-12.26l9.89-17.12A5.94,5.94,0,0,0,99,227.26l-9.87,17.1a114.75,114.75,0,0,1-33.44-33.45L72.74,201a5.93,5.93,0,1,0-5.93-10.28l-17.12,9.88a112.71,112.71,0,0,1-12.26-45.7H57.21a5.94,5.94,0,0,0,0-11.88H37.43a112.71,112.71,0,0,1,12.26-45.7l17.11,9.88A5.94,5.94,0,0,0,72.74,97l-17.1-9.87A114.91,114.91,0,0,1,89.09,53.64L99,70.74a5.93,5.93,0,0,0,10.28-5.93L99.36,47.69a112.71,112.71,0,0,1,45.7-12.26V55.21a5.94,5.94,0,0,0,11.88,0V35.43a112.71,112.71,0,0,1,45.7,12.26L192.76,64.8A5.94,5.94,0,1,0,203,70.74l9.87-17.1a114.91,114.91,0,0,1,33.45,33.45L229.26,97a5.93,5.93,0,1,0,5.93,10.28l17.12-9.88a112.71,112.71,0,0,1,12.26,45.7H244.79a5.94,5.94,0,0,0,0,11.87h19.78A112.71,112.71,0,0,1,252.31,200.64Z"/><path class="cls-1" d="M156.94,132.47V94.39a5.94,5.94,0,1,0-11.88,0v38.08a17.55,17.55,0,0,0-7.46,27.86l-9.42,16.33a5.93,5.93,0,1,0,10.28,5.93l9.42-16.31a17.56,17.56,0,0,0,9.06-33.81ZM151,154.69a5.69,5.69,0,1,1,5.69-5.69A5.69,5.69,0,0,1,151,154.69Z"/><path class="cls-1" d="M151,68.86a5.94,5.94,0,0,0-5.94,5.94v2.37a5.94,5.94,0,1,0,11.88,0V74.8A5.94,5.94,0,0,0,151,68.86Z"/></svg>