<svg id="Layer_1" data-name="Layer 1" xmlns="http://www.w3.org/2000/svg" viewBox="0 0 300 300"><defs><style>.cls-1{fill:#fd79a8;}</style></defs><title>computer</title><path class="cls-1" d="M289.47,26.65H10.07A10.54,10.54,0,0,0-.46,37.18V217.54a10.54,10.54,0,0,0,10.53,10.52H116.69L112,260.25h-3.44a6.55,6.55,0,1,0,0,13.1H191a6.55,6.55,0,0,0,0-13.1h-3.59l-5.51-32.19H289.47A10.54,10.54,0,0,0,300,217.54V37.18A10.54,10.54,0,0,0,289.47,26.65ZM174.13,260.25H125.22l4.71-32.19h38.68Zm-5-32.58Zm117.76-44V215H12.65V183.69Zm0-143.94V170.59H12.65V39.75Z"/><circle class="cls-1" cx="149.77" cy="198.88" r="7.6"/></svg>