<svg id="Layer_1" data-name="Layer 1" xmlns="http://www.w3.org/2000/svg" viewBox="0 0 300 300"><defs><style>.cls-1{fill:#fd79a8;}</style></defs><title>home</title><path class="cls-1" d="M296.5,128,156.77,5.55a10.26,10.26,0,0,0-13.54,0L3.5,128a10.28,10.28,0,0,0,13.55,15.46L27.86,134V286.79a10.27,10.27,0,0,0,10.28,10.27H261.86a10.27,10.27,0,0,0,10.27-10.27V134L283,143.47A10.28,10.28,0,0,0,296.5,128ZM126.28,276.52V191.88h47.44v84.64ZM251.59,116.05V276.52H194.27V181.61A10.27,10.27,0,0,0,184,171.33H116a10.27,10.27,0,0,0-10.27,10.28v94.91H48.41V116L150,26.94l101.59,89Z"/><path class="cls-1" d="M127,99.27a10.27,10.27,0,0,0,10.27,10.27h25.48a10.28,10.28,0,0,0,0-20.55H137.26A10.27,10.27,0,0,0,127,99.27Z"/></svg>