<svg id="Layer_1" data-name="Layer 1" xmlns="http://www.w3.org/2000/svg" viewBox="0 0 300 300"><defs><style>.cls-1{fill:#fd79a8;}</style></defs><title>like</title><path class="cls-1" d="M24.83,200.57a25.26,25.26,0,0,0,6.46,16.88,25.3,25.3,0,0,0,12.19,41.3A25.34,25.34,0,0,0,67,293.4h70.7a92.41,92.41,0,0,0,29.36-4.77l29-9.66a25.35,25.35,0,0,0,22.86,14.43h50.63A8.44,8.44,0,0,0,278,285V133.06a8.44,8.44,0,0,0-8.44-8.44H218.93a25.34,25.34,0,0,0-23.55,16c-21.17-5.16-41.62-33.58-48.06-59.33l-4.6-18.4a8.44,8.44,0,0,0-8.18-6.39H126.1A33.81,33.81,0,0,0,92.34,90.3v8.43c0,8.4,2.08,28,6.94,42.77H50.15a25.3,25.3,0,0,0-18.86,42.19A25.26,25.26,0,0,0,24.83,200.57Zm185.66-50.63a8.44,8.44,0,0,1,8.44-8.44h42.19v135H218.93a8.44,8.44,0,0,1-8.44-8.44Zm-135,33.75A8.44,8.44,0,0,0,67,175.25H50.15a8.44,8.44,0,0,1,0-16.88h84.39a8.44,8.44,0,0,0,0-16.87H117.3c-4.54-9.7-8.08-31.44-8.08-42.77V90.3A16.9,16.9,0,0,1,126.1,73.42H128l3,12C135,101.79,144.3,119.56,155.72,133c11.69,13.72,24.65,22.1,37.89,24.62V262l-31.87,10.62a75.68,75.68,0,0,1-24,3.9H67a8.44,8.44,0,1,1,0-16.88,8.44,8.44,0,1,0,0-16.87H50.15a8.44,8.44,0,1,1,0-16.88H67A8.44,8.44,0,0,0,67,209H50.15a8.44,8.44,0,0,1,0-16.88H67A8.44,8.44,0,0,0,75.46,183.69Z"/><circle class="cls-1" cx="235.8" cy="251.2" r="8.44"/><path class="cls-1" d="M117.66,39.67a8.44,8.44,0,0,1-8.44-8.44V13.79a8.44,8.44,0,1,1,16.88,0V31.23A8.44,8.44,0,0,1,117.66,39.67Z"/><path class="cls-1" d="M165.4,54.5a8.44,8.44,0,0,1-11.94-11.94L165.4,30.63a8.44,8.44,0,1,1,11.93,11.93Z"/><path class="cls-1" d="M69.92,54.5,58,42.56A8.44,8.44,0,0,1,69.92,30.63L81.85,42.56A8.44,8.44,0,0,1,69.92,54.5Z"/></svg>