<svg id="Layer_1" data-name="Layer 1" xmlns="http://www.w3.org/2000/svg" viewBox="0 0 300 300"><defs><style>.cls-1{fill:#fff;}</style></defs><title>smile</title><path class="cls-1" d="M211.23,182.52a6.27,6.27,0,0,0-8.87.49,69.91,69.91,0,0,1-103.72,0,6.28,6.28,0,0,0-9.36,8.38,82.45,82.45,0,0,0,122.44,0A6.27,6.27,0,0,0,211.23,182.52Z"/><path class="cls-1" d="M150.5,5C70.82,5,6,69.82,6,149.5S70.82,294,150.5,294,295,229.18,295,149.5,230.18,5,150.5,5Zm0,276.43c-72.75,0-131.93-59.18-131.93-131.93S77.75,17.57,150.5,17.57,282.43,76.75,282.43,149.5,223.25,281.43,150.5,281.43Z"/><path class="cls-1" d="M200.76,105.52a31.44,31.44,0,0,0-31.41,31.41,6.28,6.28,0,1,0,12.56,0,18.85,18.85,0,0,1,37.7,0,6.28,6.28,0,1,0,12.56,0A31.44,31.44,0,0,0,200.76,105.52Z"/><path class="cls-1" d="M119.09,136.93a6.28,6.28,0,1,0,12.56,0,31.41,31.41,0,0,0-62.82,0,6.28,6.28,0,1,0,12.56,0,18.85,18.85,0,0,1,37.7,0Z"/></svg>