<svg id="Layer_1" data-name="Layer 1" xmlns="http://www.w3.org/2000/svg" viewBox="0 0 300 300"><defs><style>.cls-1{fill:#fd79a8;}</style></defs><title>train</title><path class="cls-1" d="M197.92,23.9a5.85,5.85,0,1,0,5.85,5.85A5.85,5.85,0,0,0,197.92,23.9Z"/><path class="cls-1" d="M104.33,23.9a5.85,5.85,0,1,0,5.85,5.85A5.85,5.85,0,0,0,104.33,23.9Z"/><path class="cls-1" d="M272.79,290.11l-38.71-40.44a29.28,29.28,0,0,0,28.19-29.22V46.87a40.94,40.94,0,0,0-33-40.16A325.22,325.22,0,0,0,166.11.5H135.2A318.39,318.39,0,0,0,72.9,6.67,41,41,0,0,0,40,46.82V220.45a29.29,29.29,0,0,0,28.59,29.23l-39.15,40.4a5.85,5.85,0,0,0,4.2,9.92H75.45a5.86,5.86,0,0,0,4.74-2.42l17.74-24.49H204.84l17.74,24.49a5.86,5.86,0,0,0,4.74,2.42h41.24a5.85,5.85,0,0,0,4.23-9.89ZM51.68,220.45V46.82A29.34,29.34,0,0,1,75.19,18.14a306.54,306.54,0,0,1,60-5.94h30.91a313.8,313.8,0,0,1,60.9,6,29.27,29.27,0,0,1,23.56,28.69V220.45A17.57,17.57,0,0,1,233,238H69.23A17.56,17.56,0,0,1,51.68,220.45ZM72.46,288.3h-25l37.4-38.61h15.6Zm34-26.91,8.47-11.7h73l8.47,11.7Zm123.9,26.91-28-38.61h15.58l37,38.61Z"/><path class="cls-1" d="M233,47.3H69.23a5.85,5.85,0,0,0-5.85,5.85v97.1a5.85,5.85,0,0,0,5.85,5.85H233a5.85,5.85,0,0,0,5.85-5.85V53.15A5.85,5.85,0,0,0,233,47.3Zm-87.75,97.1H75.08V59h70.19Zm81.9,0H157V59h70.2Z"/><path class="cls-1" d="M174.52,23.9H127.73a5.85,5.85,0,0,0,0,11.7h46.79a5.85,5.85,0,0,0,0-11.7Z"/><path class="cls-1" d="M215.47,173.65a23.4,23.4,0,1,0,23.4,23.4A23.43,23.43,0,0,0,215.47,173.65Zm0,35.1a11.7,11.7,0,1,1,11.7-11.7A11.72,11.72,0,0,1,215.47,208.75Z"/><path class="cls-1" d="M86.78,173.65a23.4,23.4,0,1,0,23.4,23.4A23.43,23.43,0,0,0,86.78,173.65Zm0,35.1a11.7,11.7,0,1,1,11.7-11.7A11.72,11.72,0,0,1,86.78,208.75Z"/><path class="cls-1" d="M174.52,179.5H127.73a5.85,5.85,0,0,0,0,11.7h46.79a5.85,5.85,0,0,0,0-11.7Z"/><path class="cls-1" d="M174.52,202.9H127.73a5.85,5.85,0,0,0,0,11.7h46.79a5.85,5.85,0,0,0,0-11.7Z"/></svg>